Coordinates
version=1
nRows=19
nColumns=36
inDegrees=yes

Units are S.I. units (second, meters, Newtons, ...)
If the header above contains a line with 'inDegrees', this indicates whether rotational values are in degrees (yes) or radians (no).

endheader
time	pelvis_tilt	pelvis_list	pelvis_rotation	pelvis_tx	pelvis_ty	pelvis_tz	hip_flexion_r	hip_adduction_r	hip_rotation_r	knee_angle_r	knee_angle_r_beta	ankle_angle_r	subtalar_angle_r	mtp_angle_r	hip_flexion_l	hip_adduction_l	hip_rotation_l	knee_angle_l	knee_angle_l_beta	ankle_angle_l	subtalar_angle_l	mtp_angle_l	lumbar_extension	lumbar_bending	lumbar_rotation	arm_flex_r	arm_add_r	arm_rot_r	elbow_flex_r	pro_sup_r	arm_flex_l	arm_add_l	arm_rot_l	elbow_flex_l	pro_sup_l
      0.00000000	     -7.19750820	      3.41236671	     -7.62083140	      0.71139887	      1.30525958	      0.13268302	      6.85781557	     -3.20449557	      0.67216901	      2.16143561	      0.03772417	      4.36238594	     -7.62099094	     -6.74609173	      8.39321768	     -0.60442274	     -4.82083980	      7.89958403	      0.13787375	      7.28873849	      1.73603434	     -6.74609173	      6.36926003	     -3.75034738	     -2.88814111	     15.22979218	    -29.74203810	     26.88448019	    147.05395572	     74.74060141	     -8.94638509	    -27.13372984	      8.23239927	    138.54555878	    101.62876700
      0.01666670	     -6.68984322	      2.92889377	     -8.47829708	      0.71107160	      1.30615699	      0.13289400	      6.14470364	     -2.55467178	      0.45954886	      1.68952096	      0.02948770	      4.36621514	     -6.79003613	     -6.93077968	      7.48358933	     -1.14627943	     -5.73723451	      7.02520078	      0.12261288	      7.72393220	      1.84105386	     -6.93077968	      5.93174735	     -2.53394376	     -1.08601430	     14.68282453	    -29.01681125	     28.19714944	    147.94642268	     85.97604225	     -7.68160073	    -26.82280537	      7.10512576	    137.93485732	    104.61728314
      0.03333330	     -6.49540896	      2.47814927	     -8.33135577	      0.70416415	      1.30447850	      0.13485474	      6.06827711	     -1.95872099	      0.34395054	      1.80361877	      0.03147909	      4.15859357	     -7.36700323	     -7.06679233	      7.19672618	     -1.67439535	     -5.93018552	      6.31304919	      0.11018349	      7.67050625	      2.55251035	     -7.06679233	      5.40734727	     -2.49664530	     -0.55353522	     14.78691235	    -27.22259618	     27.81860094	    147.88776197	     89.84675266	     -6.22753970	    -27.29430527	      7.99153481	    136.45764351	    103.97597555
      0.05000000	     -6.24029326	      2.29439265	     -8.07760387	      0.70989175	      1.30420985	      0.13164530	      5.79529226	     -1.84591480	     -0.35479442	      1.97097671	      0.03440003	      4.54765491	     -7.42067201	     -7.07316925	      6.73465530	     -1.74589221	     -5.81810947	      5.91368776	      0.10321332	      8.09538772	      2.67544916	     -7.07316925	      5.10071545	     -2.48106695	     -0.63858096	     14.47316782	    -26.33847245	     28.20897051	    147.58311315	     89.89407779	     -6.29462432	    -27.03245850	      7.54888577	    134.98604739	    104.01284456
      0.06666670	     -6.12941557	      2.18590224	     -7.94385191	      0.70978369	      1.30423812	      0.13120865	      5.75542388	     -1.71821237	     -0.87965876	      2.33315143	      0.04072117	      5.27854459	     -7.01412133	     -7.15428481	      6.53345295	     -1.80543243	     -5.61294225	      5.83231206	      0.10179305	      8.54362997	      2.89377465	     -7.15428481	      4.97567976	     -2.39341356	     -0.36924201	     13.08295848	    -26.23311131	     29.02363402	    146.83461613	     88.97824479	     -6.69703867	    -26.59323093	      7.68181570	    133.00487997	    104.13741737
      0.08333330	     -6.18919595	      2.13967612	     -7.81298193	      0.70997212	      1.30708109	      0.13123346	      5.88059653	     -1.66538172	     -1.34978455	      2.65564849	      0.04634981	      5.61004243	     -6.94924060	     -7.30269684	      6.46778836	     -1.88307432	     -5.51478489	      5.91442662	      0.10322622	      8.47603844	      2.86485756	     -7.30269684	      5.02322789	     -2.27669432	     -0.21431951	     11.50649633	    -26.33498138	     30.04077173	    145.70131140	     88.85858603	     -7.67394166	    -26.28085081	      7.80661865	    130.67494295	    104.18689702
      0.10000000	     -6.40767624	      2.23791572	     -7.77212366	      0.70990486	      1.30105753	      0.13129205	      6.19627080	     -1.73468102	     -1.62966823	      2.92884621	      0.05111801	      5.63289283	     -7.13940175	     -7.33156933	      6.70665169	     -1.88358180	     -5.65045375	      6.20176000	      0.10824113	      8.54284625	      3.00268490	     -7.33156933	      5.34490144	     -2.27417344	     -0.06961021	     10.08685684	    -26.67641128	     30.45244600	    144.55333507	     87.57553306	     -8.36874032	    -26.30320448	      7.91205908	    128.67657596	    102.34649735
      0.11666670	     -6.68582231	      2.27648031	     -7.65369709	      0.71013358	      1.30093027	      0.13137481	      6.50971258	     -1.76747806	     -2.24165262	      3.20498293	      0.05593750	      5.61398206	     -7.20240525	     -7.34843034	      7.04592423	     -1.92326514	     -5.47537973	      6.49493261	      0.11335796	      8.52177826	      2.70655418	     -7.34843034	      5.66572774	     -2.10454064	     -0.07205206	      8.84670146	    -27.07205718	     30.71985943	    142.91179338	     86.04566643	     -9.38490264	    -26.08823710	      8.20605271	    127.36395084	    100.56201045
      0.13333330	     -6.74822492	      2.32058650	     -7.61886782	      0.71090043	      1.30096314	      0.13140858	      6.46348367	     -1.79087923	     -2.45243981	      3.22941594	      0.05636394	      5.52518946	     -7.49286342	     -7.36276265	      7.09013017	     -1.94453810	     -5.68358586	      6.60836598	      0.11533774	      8.55060181	      2.76276776	     -7.36276265	      5.81294743	     -1.99810689	     -0.06271798	      7.59460896	    -27.41863866	     30.90443265	    140.62418072	     85.02127826	    -10.44136001	    -26.05848597	      8.71473695	    124.68083913	     99.51982513
      0.15000000	     -6.86729769	      2.32868416	     -7.57261810	      0.71100243	      1.30104025	      0.13156986	      6.46619840	     -1.76102286	     -2.57395480	      3.21429910	      0.05610010	      5.41746956	     -7.84622282	     -7.37659135	      7.17910895	     -1.99584753	     -5.81184894	      6.62427039	      0.11561533	      8.47307694	      2.76140117	     -7.37659135	      6.03743412	     -1.86393371	      0.06907788	      6.46286028	    -27.72906949	     30.82424448	    138.00137128	     83.85911708	    -11.16549254	    -26.17203899	      9.64986390	    121.88504659	     98.62412544
      0.16666670	     -7.44160968	      2.35786495	     -7.39939386	      0.71193206	      1.30338761	      0.13140168	      7.00156131	     -1.69235732	     -2.70891754	      3.25221385	      0.05676184	      5.73440921	     -7.64109318	     -7.39045895	      7.82770542	     -2.05195967	     -5.61002133	      6.65703333	      0.11618715	      8.38981132	      2.39910338	     -7.39045895	      6.74477302	     -1.66910317	     -0.15532034	      4.69819572	    -28.43845206	     31.02779655	    135.30589419	     82.25657506	    -13.26023033	    -26.13048903	     10.09335633	    118.30172688	     96.58819261
      0.18333330	     -6.98194642	      2.28516112	     -7.30606793	      0.71181239	      1.30380141	      0.13136678	      6.30166051	     -1.62192105	     -2.50744417	      2.95945206	      0.05165218	      5.29119522	     -8.31686661	     -7.40303777	      7.16961604	     -2.08493094	     -6.00287612	      6.32497906	      0.11039171	      8.09707232	      2.83989551	     -7.40303777	      6.29143056	     -1.41737229	      0.19927999	      3.55226250	    -29.14412438	     31.11320796	    131.73606170	     81.91628601	    -13.95810534	    -26.27968064	     11.10459472	    113.89469805	     96.18122176
      0.20000000	     -6.98830729	      2.26382186	     -7.21364458	      0.71198337	      1.30351559	      0.13104626	      6.17672467	     -1.56114490	     -2.52782594	      2.78707652	      0.04864366	      5.32698267	     -8.26225366	     -7.40906670	      7.05378793	     -2.08869444	     -5.89251633	      6.04172285	      0.10544796	      7.88793315	      2.78902073	     -7.40906670	      6.32172141	     -1.33351700	      0.30058841	      2.98754918	    -29.37218391	     30.74273899	    128.09156397	     81.48915306	    -15.53935691	    -26.38610507	     11.60150032	    109.77523172	     95.41274977
      0.21666670	     -7.09177867	      2.19869769	     -7.03156726	      0.71235066	      1.30620165	      0.13091086	      6.12757630	     -1.42846026	     -2.53155627	      2.61751605	      0.04568427	      5.31961643	     -8.26145355	     -7.42119506	      7.14107890	     -2.15767826	     -5.74620628	      5.76077055	      0.10054441	      7.81456945	      2.89238106	     -7.42119506	      6.37463260	     -1.14263532	      0.38030739	      2.06417666	    -29.88872211	     30.63007947	    123.57277301	     79.97569517	    -17.25402192	    -26.00529367	     11.69274890	    105.13890073	     93.14026486
      0.23333330	     -6.89632389	      2.13032866	     -7.01221977	      0.72552835	      1.30601548	      0.13200902	      5.60143910	     -1.35050754	     -2.43627011	      2.35758132	      0.04114756	      5.28190314	     -8.34499956	     -7.43744103	      6.55287239	     -2.16704697	     -5.96455827	      5.17580863	      0.09033490	      7.67288782	      3.35526674	     -7.43744103	      6.25597323	     -1.13671561	     -0.09850614	      0.98778810	    -30.72918432	     31.49032062	    118.40077999	     78.77532884	    -19.46223819	    -25.15789649	     10.94699913	    100.67332414	     89.36138666
      0.25000000	     -6.73397478	      2.06245598	     -6.89104860	      0.72444761	      1.30029604	      0.13196026	      5.13738145	     -1.28317752	     -2.62288220	      2.11016304	      0.03682929	      5.44805613	     -8.06822195	     -7.44619494	      6.08758551	     -2.17241822	     -5.91116382	      4.71937422	      0.08236862	      7.58060185	      3.68282517	     -7.44619494	      6.20480775	     -1.15110662	     -0.48782219	     -1.14258313	    -30.92554893	     30.89060756	    113.89182710	     76.77311612	    -21.94044817	    -24.21562537	      9.77656311	     96.40586283	     85.95528971
      0.26666670	     -6.69911279	      1.98468029	     -6.69243209	      0.72529096	      1.30626781	      0.13149593	      4.82221546	     -1.20680005	     -2.57876918	      1.94388934	      0.03392727	      5.49500745	     -8.27202077	     -7.44850649	      5.78679587	     -2.21122744	     -5.63615402	      4.28183488	      0.07473212	      7.38293567	      3.64926011	     -7.44850649	      6.25501294	     -1.31683477	     -1.26814268	     -4.28595081	    -29.94118662	     29.01937461	    108.01789089	     76.76861215	    -23.47678496	    -22.47675750	      7.29768843	     90.72959691	     85.77823782
      0.28333330	     -6.60477044	      1.94136821	     -6.59578412	      0.71929922	      1.30796431	      0.13395667	      4.57047288	     -1.12184756	     -2.58582391	      1.85261808	      0.03233429	      5.52750747	     -8.32100915	     -7.45042002	      5.58848370	     -2.23673454	     -5.42959338	      4.09075942	      0.07139722	      7.29210245	      3.73438403	     -7.45042002	      6.15386154	     -1.57783358	     -1.67678034	     -6.87655253	    -28.32656188	     27.26639035	    100.76596158	     76.52446235	    -23.54092061	    -21.01073003	      5.42214250	     84.00973192	     85.56541159
      0.30000000	     -6.44987124	      1.95670713	     -6.61021954	      0.72484987	      1.30296218	      0.13123792	      4.26866767	     -1.14506288	     -2.53203159	      1.73288600	      0.03024457	      5.52462951	     -8.41772246	     -7.45994936	      5.21760177	     -2.17673546	     -5.41217624	      3.79405334	      0.06621872	      7.22977644	      3.90179666	     -7.45994936	      6.04879874	     -1.81351755	     -0.90630718	    -10.74261989	    -26.57081238	     23.53681126	     93.26098675	     75.28483666	    -22.05734334	    -20.11086321	      5.48506341	     76.32966614	     83.99799918
